<?xml version="1.0" encoding="UTF-8"?>
<svg id="Layer_2" data-name="Layer 2" xmlns="http://www.w3.org/2000/svg" viewBox="0 0 420.68 98.19">
  <defs>
    <style>
      .cls-1 {
        fill: #fff;
        stroke-width: 0px;
      }
    </style>
  </defs>
  <g id="Layer_1-2" data-name="Layer 1">
    <g>
      <path class="cls-1" d="M171.37,61.61h-5.98v-.64c0-5.95,0-11.9,0-17.85,0-1.88-.29-3.7-1.35-5.3-1.76-2.67-4.35-3.66-7.42-3.32-4.02.44-6.83,3.19-7.62,7.37-.19,1.03-.26,2.09-.26,3.13-.03,5.32-.01,10.63-.01,15.95v.66h-6.07v-.61c0-5.82,0-11.65,0-17.47,0-1.87-.26-3.69-1.15-5.37-1.42-2.69-4.29-4.09-7.46-3.68-4.21.55-7.02,3.27-7.82,7.65-.17.96-.23,1.95-.23,2.92-.02,5.3-.01,10.6-.01,15.89,0,.21,0,.43,0,.66h-5.95v-31.89h5.65v4.95c2.85-3.67,6.45-5.59,10.93-5.56,4.52.03,8.07,1.93,10.38,6,.2-.27.38-.51.57-.74,2.5-3.09,5.77-4.76,9.7-5.18,2.79-.3,5.47.1,7.96,1.44,3.23,1.73,5.09,4.5,5.82,8.05.2.97.31,1.98.32,2.97.03,6.53.02,13.06.02,19.59,0,.11,0,.21-.02.39Z"/>
      <path class="cls-1" d="M306.31,35.06v-5.34h5.62v31.89h-5.61v-5.51c-.2.25-.3.36-.39.48-3.22,4.18-7.48,6.04-12.71,5.74-7.54-.43-13.24-5.98-14.37-13.52-.71-4.69-.04-9.15,2.69-13.1,3.45-5,8.34-7.14,14.35-6.63,4.25.36,7.6,2.42,10.15,5.82.05.07.11.14.17.2.04,0,.08-.02.12-.02ZM306.25,45.72c0-5.87-3.84-10.54-9.26-11.23-4.16-.53-7.69.76-10.16,4.19-2.77,3.84-2.98,8.05-1.06,12.31,2.69,5.97,10.72,7.93,15.93,3.97,3.08-2.34,4.43-5.54,4.55-9.25Z"/>
      <path class="cls-1" d="M211.26,47.72h-27.1c.14,3.26,2.36,7.43,6.75,9.07,4.57,1.7,11.24.63,14.22-4.69,1.53.71,3.07,1.43,4.63,2.15-.92,2.03-2.3,3.62-4.06,4.87-3.48,2.48-7.41,3.38-11.62,3.2-3.47-.15-6.67-1.14-9.48-3.23-3.32-2.48-5.3-5.81-6.05-9.86-.77-4.19-.33-8.25,1.78-12.01,2.52-4.48,6.45-7.03,11.45-7.9,3.81-.67,7.54-.32,11.03,1.41,4.9,2.44,7.69,6.44,8.4,11.84.2,1.53.08,3.11.1,4.67,0,.14-.04.28-.07.48ZM205.54,43.16c-.22-4-3.62-9.42-10.48-9.45-6.7-.03-10.56,5.44-10.88,9.45h21.37Z"/>
      <path class="cls-1" d="M371.78,61.61h-5.67v-5.39c-.2.23-.29.33-.37.43-3.19,4.27-7.52,5.98-12.74,5.54-3.4-.28-6.21-1.75-8.33-4.46-1.54-1.98-2.38-4.26-2.7-6.73-.14-1.11-.19-2.24-.2-3.36-.02-5.75,0-11.5,0-17.25v-.68h5.97c.01.23.03.45.03.68,0,5.68,0,11.36,0,17.03,0,1.72.24,3.4,1.02,4.96,1.93,3.85,6.25,5.57,10.33,4.04,4.03-1.52,6.1-4.59,6.67-8.76.09-.64.1-1.3.1-1.95,0-5.1,0-10.19,0-15.29v-.69h5.89v31.89Z"/>
      <path class="cls-1" d="M268.81,50.13c1.72.74,3.46,1.5,5.24,2.27-.57,1.53-1.38,2.89-2.43,4.1-3.09,3.59-7.08,5.38-11.73,5.78-3.88.33-7.56-.37-10.9-2.44-4.06-2.51-6.44-6.2-7.25-10.87-.7-4.04-.24-7.97,1.77-11.6,2.59-4.69,6.66-7.31,11.88-8.16,4.08-.66,8.03-.15,11.71,1.83,3.44,1.85,5.79,4.65,7.03,8.36.01.03,0,.07,0,.17-1.82.54-3.65,1.07-5.52,1.63-.14-.32-.26-.62-.41-.91-1.8-3.51-4.73-5.43-8.59-5.86-2.84-.31-5.52.3-7.87,2.02-2.45,1.79-3.77,4.26-4.2,7.22-.46,3.14.02,6.12,1.84,8.78,1.84,2.7,4.48,4.14,7.69,4.47,4.32.45,7.82-1.11,10.43-4.58.51-.67.86-1.46,1.31-2.21Z"/>
      <path class="cls-1" d="M406.61,31.73c-.53,1.54-1.04,3.04-1.57,4.58-.77-.3-1.48-.6-2.21-.86-3.26-1.18-6.61-1.91-10.1-1.79-1.66.06-3.29.32-4.77,1.13-1.72.95-2.49,2.53-2.13,4.35.21,1.07.86,1.85,1.83,2.21,1.33.5,2.71.91,4.1,1.21,2.9.64,5.84,1.09,8.72,1.79,1.37.33,2.71.94,3.95,1.63,2.73,1.52,3.74,4.02,3.56,7.05-.21,3.59-2.19,5.96-5.31,7.49-2.37,1.16-4.92,1.61-7.52,1.73-5.27.24-10.28-.75-14.95-3.26-.49-.27-.97-.57-1.45-.86-.06-.04-.11-.1-.17-.16.73-1.5,1.46-3,2.2-4.52.12.05.22.08.31.14,4.34,2.69,9.06,4,14.17,3.79,1.75-.07,3.46-.39,5.02-1.24,1.7-.92,2.44-2.37,2.12-4.07-.19-1.02-.8-1.73-1.66-2.24-1.4-.83-2.96-1.15-4.53-1.47-2.79-.56-5.59-1.05-8.36-1.66-1.83-.41-3.56-1.1-5.06-2.29-1.63-1.29-2.49-3-2.6-5.06-.25-4.6,2.14-7.93,6.7-9.41,2.98-.96,6.04-1.11,9.14-.88,3.48.25,6.83,1.06,10.04,2.42.17.07.33.15.56.25Z"/>
      <path class="cls-1" d="M319.51,29.69v-11.35h5.87v11.33h10.52v5.02h-10.51c0,.24,0,.42,0,.6,0,5.21-.01,10.41.01,15.62,0,.94.07,1.89.27,2.8.46,2.01,1.92,3.07,4.22,3.26,2.32.19,4.55-.16,6.74-.9.12-.04.24-.06.42-.11,0,1.64,0,3.23-.01,4.82,0,.1-.13.26-.24.3-3.77,1.37-7.61,1.9-11.48.49-3.24-1.18-4.97-3.69-5.56-7.01-.17-.94-.23-1.91-.23-2.87-.02-5.42-.01-10.85-.01-16.27v-.71"/>
      <path class="cls-1" d="M218.89,29.71h5.65v4.7c.17-.2.25-.28.31-.37,2.38-3.51,5.78-5.06,9.93-4.99,1.18.02,2.37.29,3.54.48.15.02.38.25.39.38.03,1.78.02,3.55.02,5.38-.96-.18-1.81-.36-2.68-.5-2.31-.36-4.57-.21-6.66.93-2.5,1.36-3.87,3.55-4.4,6.28-.2,1.01-.26,2.05-.27,3.08-.03,5.28-.01,10.56-.01,15.84v.68h-5.82v-31.88Z"/>
      <rect class="cls-1" x="289.43" y="19.83" width="16.77" height="4"/>
      <path class="cls-1" d="M83.62,83.99V14.2c8.99,8.9,14.57,21.24,14.57,34.89s-5.57,25.99-14.57,34.89ZM0,49.09c0,13.29,5.29,25.34,13.87,34.18V14.91C5.29,23.75,0,35.8,0,49.09ZM64.12,90.24h11.74c-7.7,5.02-16.89,7.95-26.77,7.95-12.98,0-24.78-5.05-33.55-13.27h16.18V12.68h-15.55C24.88,4.8,36.43,0,49.09,0c10.46,0,20.15,3.28,28.11,8.85h-13.09v81.39ZM57.3,19.9h-18.56v59.84h18.56V19.9Z"/>
      <path class="cls-1" d="M411.96,55.58h2.94v.82h-.95v3.41s-1.07,0-1.07,0l.02-3.41h-.95v-.82ZM420.68,55.58v4.22h-.98l-.02-2.86-1.19,2.86h-.73l-1.18-2.92v2.92h-.97v-4.22h1.39l1.15,2.96,1.21-2.96h1.32Z"/>
    </g>
  </g>
</svg>